<svg width="44" height="44" viewBox="0 0 44 44" fill="none" xmlns="http://www.w3.org/2000/svg">
<path d="M6.95215 4.79999H37.0475C38.2362 4.79999 39.1998 5.76364 39.1998 6.95233V37.0476C39.1998 38.2363 38.2362 39.2 37.0475 39.2H6.95215C5.76346 39.2 4.7998 38.2363 4.7998 37.0476V6.95233C4.7998 5.76364 5.76346 4.79999 6.95215 4.79999Z" stroke="#2B76C1" stroke-width="3"/>
<path fill-rule="evenodd" clip-rule="evenodd" d="M24.4513 31.061V34.7178C25.0458 35.0226 25.7488 35.2511 26.5605 35.4035C27.3722 35.5558 28.2277 35.632 29.127 35.632C30.677 35.632 32.3738 35.4103 33.6999 34.5521C35.0194 33.6981 35.6319 32.2774 35.6319 30.7411C35.6319 29.5989 35.2776 28.4997 34.4773 27.6672C33.2772 26.4188 31.5908 25.9125 30.0758 25.1703C29.317 24.7984 28.2696 24.2212 28.2696 23.2447C28.2696 22.9933 28.3344 22.7667 28.464 22.5648C28.985 21.753 30.1421 21.5877 31.0248 21.5877C32.0268 21.5877 33.0839 21.8121 34.0143 22.2276C34.3382 22.3724 34.6373 22.54 34.9117 22.7305V19.3136C34.3554 19.1003 33.7475 18.9423 33.0883 18.8394C32.429 18.7366 31.6726 18.6852 30.819 18.6852C29.9501 18.6852 29.127 18.7785 28.3497 18.9651C27.5723 19.1518 26.8883 19.4432 26.2976 19.8393C25.7069 20.2355 25.2401 20.7402 24.8972 21.3535C24.5542 21.9667 24.3827 22.7 24.3827 23.5532C24.3827 24.6426 24.6971 25.5721 25.3259 26.3416C25.9546 27.111 26.9092 27.7623 28.1896 28.2956C29.051 28.6479 29.9466 28.9955 30.7218 29.5184C31.2591 29.8807 31.745 30.3859 31.745 31.0724C31.745 31.5707 31.4633 31.9931 31.0534 32.2552C30.4468 32.6429 29.6701 32.7294 28.9669 32.7294C28.1743 32.7294 27.3893 32.5904 26.6119 32.3123C25.8346 32.0343 25.1144 31.6172 24.4513 31.061ZM18.3038 22.0513H22.9948V19.0504H9.91943V22.0513H14.5876V35.4129H18.3038V22.0513Z" fill="#2B76C1"/>
</svg>
