<svg width="58" height="58" viewBox="0 0 58 58" fill="none" xmlns="http://www.w3.org/2000/svg">
<path d="M31.7188 7.25H26.2812C26.0409 7.25 25.8104 7.15452 25.6404 6.98457C25.4705 6.81461 25.375 6.5841 25.375 6.34375C25.375 6.1034 25.4705 5.87289 25.6404 5.70293C25.8104 5.53298 26.0409 5.4375 26.2812 5.4375H31.7188C31.9591 5.4375 32.1896 5.53298 32.3596 5.70293C32.5295 5.87289 32.625 6.1034 32.625 6.34375C32.625 6.5841 32.5295 6.81461 32.3596 6.98457C32.1896 7.15452 31.9591 7.25 31.7188 7.25ZM38.9688 56.1875H19.0312C17.8299 56.1861 16.6782 55.7082 15.8288 54.8587C14.9793 54.0093 14.5014 52.8576 14.5 51.6562V20.8438C14.5 20.6034 14.5955 20.3729 14.7654 20.2029C14.9354 20.033 15.1659 19.9375 15.4062 19.9375C15.6466 19.9375 15.8771 20.033 16.0471 20.2029C16.217 20.3729 16.3125 20.6034 16.3125 20.8438V51.6562C16.3125 53.1552 17.5323 54.375 19.0312 54.375H38.9688C40.4677 54.375 41.6875 53.1552 41.6875 51.6562V20.8438C41.6875 20.6034 41.783 20.3729 41.9529 20.2029C42.1229 20.033 42.3534 19.9375 42.5938 19.9375C42.8341 19.9375 43.0646 20.033 43.2346 20.2029C43.4045 20.3729 43.5 20.6034 43.5 20.8438V51.6562C43.5 54.1539 41.4682 56.1875 38.9688 56.1875Z" fill="black"/>
<path d="M42.5938 27.1875C42.3534 27.1875 42.1229 27.092 41.9529 26.9221C41.783 26.7521 41.6875 26.5216 41.6875 26.2813V6.34375C41.6875 4.84481 40.4677 3.625 38.9688 3.625H19.0312C17.5323 3.625 16.3125 4.84481 16.3125 6.34375V26.2813C16.3125 26.5216 16.217 26.7521 16.0471 26.9221C15.8771 27.092 15.6466 27.1875 15.4062 27.1875C15.1659 27.1875 14.9354 27.092 14.7654 26.9221C14.5955 26.7521 14.5 26.5216 14.5 26.2813V6.34375C14.5 3.84613 16.5318 1.8125 19.0312 1.8125H38.9688C41.4682 1.8125 43.5 3.84613 43.5 6.34375V26.2813C43.5 26.5216 43.4045 26.7521 43.2346 26.9221C43.0646 27.092 42.8341 27.1875 42.5938 27.1875ZM48.0312 10.9656C47.531 10.9656 47.125 10.6503 47.125 10.15V9.96875C47.125 9.7284 47.2205 9.49789 47.3904 9.32794C47.5604 9.15798 47.7909 9.0625 48.0312 9.0625C48.2716 9.0625 48.5021 9.15798 48.6721 9.32794C48.842 9.49789 48.9375 9.7284 48.9375 9.96875C48.9375 10.469 48.5315 10.9656 48.0312 10.9656ZM48.0312 14.5906C47.531 14.5906 47.125 14.2753 47.125 13.775V13.5938C47.125 13.3534 47.2205 13.1229 47.3904 12.9529C47.5604 12.783 47.7909 12.6875 48.0312 12.6875C48.2716 12.6875 48.5021 12.783 48.6721 12.9529C48.842 13.1229 48.9375 13.3534 48.9375 13.5938C48.9375 14.094 48.5315 14.5906 48.0312 14.5906ZM48.0312 18.2156C47.531 18.2156 47.125 17.9003 47.125 17.4V17.2188C47.125 16.9784 47.2205 16.7479 47.3904 16.5779C47.5604 16.408 47.7909 16.3125 48.0312 16.3125C48.2716 16.3125 48.5021 16.408 48.6721 16.5779C48.842 16.7479 48.9375 16.9784 48.9375 17.2188C48.9375 17.719 48.5315 18.2156 48.0312 18.2156ZM9.96875 41.5969C9.4685 41.5969 9.0625 41.2815 9.0625 40.7813V40.6C9.0625 40.3596 9.15798 40.1291 9.32793 39.9592C9.49789 39.7892 9.7284 39.6938 9.96875 39.6938C10.2091 39.6938 10.4396 39.7892 10.6096 39.9592C10.7795 40.1291 10.875 40.3596 10.875 40.6C10.875 41.1003 10.469 41.5969 9.96875 41.5969ZM9.96875 45.2219C9.4685 45.2219 9.0625 44.9065 9.0625 44.4063V44.225C9.0625 43.9846 9.15798 43.7541 9.32793 43.5842C9.49789 43.4142 9.7284 43.3188 9.96875 43.3188C10.2091 43.3188 10.4396 43.4142 10.6096 43.5842C10.7795 43.7541 10.875 43.9846 10.875 44.225C10.875 44.7253 10.469 45.2219 9.96875 45.2219ZM9.96875 48.8469C9.4685 48.8469 9.0625 48.5315 9.0625 48.0313V47.85C9.0625 47.6096 9.15798 47.3791 9.32793 47.2092C9.49789 47.0392 9.7284 46.9438 9.96875 46.9438C10.2091 46.9438 10.4396 47.0392 10.6096 47.2092C10.7795 47.3791 10.875 47.6096 10.875 47.85C10.875 48.3503 10.469 48.8469 9.96875 48.8469Z" fill="black"/>
<path d="M45.0243 48.9375C44.8891 48.9375 44.7556 48.9073 44.6336 48.8491C44.5116 48.7909 44.4042 48.7061 44.3192 48.6009C44.2342 48.4958 44.1739 48.373 44.1425 48.2415C44.1112 48.11 44.1096 47.9731 44.138 47.8409L44.7361 45.0678C44.7718 44.9013 44.8539 44.7482 44.9729 44.6263C45.0919 44.5044 45.2429 44.4187 45.4086 44.3791C46.2831 44.1646 47.119 43.8155 47.8863 43.3441C48.0309 43.2558 48.1975 43.2099 48.367 43.2115C48.5364 43.2131 48.7021 43.2622 48.8451 43.3532L50.6394 44.5005L51.7505 43.3804L50.6032 41.6005C50.5111 41.4574 50.4611 41.2913 50.4588 41.1211C50.4566 40.9509 50.5022 40.7836 50.5905 40.6381C51.062 39.8711 51.4106 39.0351 51.6236 38.1604C51.6635 37.9952 51.7488 37.8446 51.8699 37.7254C51.991 37.6062 52.143 37.5233 52.3088 37.4861L54.375 37.0276V35.4743L52.3106 35.0157C52.1448 34.9785 51.9928 34.8956 51.8717 34.7764C51.7506 34.6573 51.6653 34.5066 51.6254 34.3414C51.4117 33.467 51.0631 32.6311 50.5923 31.8637C50.5033 31.7189 50.4571 31.5519 50.459 31.3819C50.4609 31.2119 50.5109 31.0459 50.6032 30.9031L51.7523 29.1069L50.6431 27.9977L48.8469 29.1468C48.704 29.2382 48.5383 29.2876 48.3688 29.2892C48.1992 29.2908 48.0326 29.2446 47.8881 29.1559C47.1205 28.6851 46.2847 28.336 45.4104 28.1209C45.2447 28.0813 45.0937 27.9956 44.9747 27.8737C44.8557 27.7518 44.7736 27.5987 44.7379 27.4322L44.2921 25.375H43.5C43.2596 25.375 43.0291 25.2795 42.8592 25.1096C42.6892 24.9396 42.5938 24.7091 42.5938 24.4688C42.5938 24.2284 42.6892 23.9979 42.8592 23.8279C43.0291 23.658 43.2596 23.5625 43.5 23.5625H45.0225C45.2295 23.5629 45.4302 23.6341 45.5911 23.7643C45.752 23.8946 45.8635 24.076 45.907 24.2784L46.3909 26.5133C47.0543 26.7144 47.705 26.9863 48.3321 27.3253L50.2787 26.0801C50.4528 25.9688 50.6597 25.9204 50.8651 25.9428C51.0704 25.9652 51.262 26.0571 51.4079 26.2033L53.5485 28.3421C53.6944 28.4883 53.786 28.6799 53.808 28.8853C53.8301 29.0906 53.7814 29.2974 53.6699 29.4713L52.4247 31.4179C52.7637 32.0468 53.0356 32.6975 53.2367 33.3627L55.4752 33.8593C55.8921 33.9517 56.1875 34.3215 56.1875 34.7456V37.7544C56.1874 37.9607 56.117 38.1607 55.9878 38.3216C55.8586 38.4824 55.6784 38.5943 55.477 38.6389L53.2386 39.1355C53.034 39.8088 52.7619 40.4598 52.4266 41.0785L53.6699 43.007C53.7825 43.1803 53.8322 43.3869 53.8108 43.5924C53.7894 43.798 53.698 43.9899 53.5521 44.1362L51.4116 46.2931C51.2655 46.4397 51.0738 46.532 50.8681 46.5547C50.6624 46.5775 50.4551 46.5293 50.2806 46.4181L48.3339 45.1729C47.7156 45.5077 47.0653 45.7797 46.3928 45.9849L45.9088 48.2197C45.8654 48.4223 45.754 48.604 45.5931 48.7346C45.4322 48.8651 45.2315 48.9367 45.0243 48.9375Z" fill="black"/>
<path d="M46.0212 40.9227C45.8272 40.9224 45.6383 40.8598 45.4825 40.744C45.3267 40.6283 45.2121 40.4656 45.1557 40.2799C45.0993 40.0942 45.104 39.8953 45.1691 39.7125C45.2342 39.5297 45.3563 39.3725 45.5174 39.2643C46.213 38.7955 46.7247 38.1002 46.9655 37.2966C47.2062 36.4931 47.1611 35.6309 46.8379 34.8569C46.5146 34.0828 45.9332 33.4447 45.1924 33.051C44.4517 32.6573 43.5975 32.5325 42.7751 32.6976C42.6584 32.7215 42.5382 32.7222 42.4213 32.6997C42.3044 32.6772 42.1931 32.6318 42.0937 32.5663C41.9943 32.5007 41.9088 32.4162 41.8421 32.3176C41.7754 32.219 41.7287 32.1083 41.7048 31.9916C41.6809 31.875 41.6801 31.7548 41.7027 31.6379C41.7252 31.521 41.7705 31.4097 41.8361 31.3103C41.9016 31.2109 41.9861 31.1254 42.0847 31.0587C42.1833 30.9919 42.2941 30.9453 42.4107 30.9214C43.2008 30.7611 44.0166 30.7784 44.7992 30.9718C45.5819 31.1652 46.3118 31.5301 46.9362 32.0399C47.5607 32.5497 48.0642 33.1919 48.4103 33.92C48.7564 34.6481 48.9365 35.4439 48.9376 36.2501C48.9377 37.1435 48.7177 38.0232 48.2969 38.8114C47.8762 39.5995 47.2676 40.2718 46.5251 40.7687C46.3762 40.8689 46.2008 40.9225 46.0212 40.9227ZM14.5001 27.1876C13.3318 27.1892 12.1941 26.8143 11.2556 26.1185C10.3171 25.4227 9.62772 24.4431 9.28967 23.3248C8.95161 22.2065 8.98285 21.009 9.37876 19.9099C9.77467 18.8107 10.5142 17.8684 11.4877 17.2225C11.6877 17.0976 11.9284 17.0556 12.1589 17.1054C12.3893 17.1551 12.5913 17.2927 12.7219 17.4889C12.8526 17.6852 12.9017 17.9246 12.8587 18.1564C12.8157 18.3882 12.6841 18.5941 12.4918 18.7305C11.7962 19.1974 11.2836 19.8907 11.041 20.6927C10.7985 21.4946 10.8409 22.3558 11.1611 23.13C11.4813 23.9042 12.0595 24.5438 12.7976 24.9401C13.5358 25.3365 14.3883 25.4652 15.2106 25.3044C15.4463 25.2579 15.6908 25.3065 15.8908 25.4396C16.0908 25.5727 16.23 25.7795 16.2781 26.0149C16.3016 26.1316 16.3019 26.2517 16.2789 26.3684C16.2559 26.4852 16.21 26.5962 16.144 26.6952C16.078 26.7942 15.9931 26.8793 15.8942 26.9454C15.7953 27.0115 15.6843 27.0575 15.5676 27.0807C15.2163 27.1522 14.8586 27.188 14.5001 27.1876Z" fill="black"/>
<path d="M14.5 34.4375H12.9775C12.7705 34.4372 12.5698 34.3659 12.4089 34.2357C12.2479 34.1054 12.1365 33.924 12.093 33.7216L11.6091 31.4868C10.9364 31.2819 10.2861 31.0098 9.66788 30.6748L7.72125 31.92C7.54717 32.0312 7.34031 32.0796 7.13495 32.0572C6.92959 32.0348 6.73805 31.9429 6.59206 31.7967L4.4515 29.658C4.30561 29.5118 4.21405 29.3201 4.19196 29.1148C4.16988 28.9094 4.2186 28.7027 4.33006 28.5288L5.57525 26.5822C5.24016 25.9627 4.96813 25.3112 4.76325 24.6373L2.52481 24.1407C2.32292 24.0961 2.14228 23.984 2.01276 23.8229C1.88324 23.6617 1.81259 23.4612 1.8125 23.2544V20.2457C1.81258 20.0394 1.88303 19.8393 2.01222 19.6785C2.1414 19.5176 2.32159 19.4057 2.523 19.3612L4.76144 18.8645C4.96263 18.1993 5.2345 17.5487 5.57344 16.9215L4.33188 14.9912C4.2193 14.8179 4.16958 14.6113 4.19102 14.4058C4.21246 14.2003 4.30377 14.0083 4.44969 13.862L6.59025 11.7052C6.73578 11.5577 6.92762 11.4647 7.13356 11.442C7.33951 11.4192 7.54702 11.468 7.72125 11.5801L9.66788 12.8253C10.2862 12.4905 10.9365 12.2185 11.6091 12.0133L12.093 9.77847C12.115 9.65911 12.1607 9.54537 12.2274 9.44401C12.2941 9.34265 12.3806 9.25572 12.4815 9.18839C12.5825 9.12106 12.696 9.0747 12.8152 9.05205C12.9344 9.0294 13.057 9.03094 13.1756 9.05656C13.2942 9.08218 13.4065 9.13136 13.5058 9.20119C13.605 9.27103 13.6892 9.36008 13.7534 9.46308C13.8176 9.56608 13.8605 9.68092 13.8794 9.80079C13.8984 9.92067 13.8931 10.0431 13.8638 10.1609L13.2657 12.934C13.23 13.1006 13.1479 13.2536 13.0289 13.3755C12.9099 13.4974 12.7589 13.5831 12.5933 13.6228C11.7182 13.8375 10.8818 14.1867 10.1137 14.6577C9.96907 14.746 9.80253 14.792 9.63305 14.7904C9.46356 14.7888 9.29792 14.7397 9.15494 14.6487L7.36056 13.5013L6.24769 14.6215L7.395 16.4013C7.48791 16.5441 7.53842 16.7104 7.54066 16.8807C7.54291 17.0511 7.4968 17.2186 7.40769 17.3638C6.93615 18.1307 6.58755 18.9667 6.37456 19.8415C6.3347 20.0066 6.24939 20.1573 6.12831 20.2765C6.00722 20.3956 5.8552 20.4785 5.68944 20.5157L3.625 20.9725V22.5258L5.68944 22.9843C5.8552 23.0216 6.00722 23.1044 6.12831 23.2236C6.24939 23.3428 6.3347 23.4935 6.37456 23.6586C6.57937 24.5141 6.92919 25.3478 7.40769 26.1363C7.58894 26.4317 7.58531 26.8051 7.39681 27.0969L6.24769 28.8913L7.35694 30.0005L9.15313 28.8514C9.29626 28.7608 9.46184 28.7119 9.63124 28.7103C9.80064 28.7087 9.96712 28.7544 10.1119 28.8423C10.9022 29.3227 11.7359 29.6707 12.5896 29.8773C12.7553 29.9169 12.9063 30.0027 13.0253 30.1245C13.1443 30.2464 13.2264 30.3995 13.2621 30.566L13.7079 32.625H14.5C14.7404 32.625 14.9709 32.7205 15.1408 32.8905C15.3108 33.0604 15.4062 33.2909 15.4062 33.5313C15.4062 33.7716 15.3108 34.0021 15.1408 34.1721C14.9709 34.3421 14.7404 34.4375 14.5 34.4375ZM28.0938 33.5313C27.956 33.5316 27.82 33.5004 27.6961 33.4402C27.5722 33.3799 27.4637 33.2921 27.3789 33.1835C27.2941 33.075 27.2352 32.9484 27.2067 32.8136C27.1783 32.6788 27.181 32.5393 27.2147 32.4057L29.0272 25.1557C29.0551 25.0398 29.1059 24.9306 29.1765 24.8345C29.247 24.7384 29.336 24.6572 29.4382 24.5958C29.5404 24.5344 29.6539 24.494 29.7719 24.4768C29.8899 24.4597 30.0101 24.4662 30.1256 24.496C30.2411 24.5246 30.3499 24.5757 30.4456 24.6465C30.5414 24.7172 30.6222 24.8061 30.6835 24.9082C30.7448 25.0102 30.7853 25.1234 30.8028 25.2411C30.8203 25.3589 30.8143 25.4789 30.7853 25.5943L28.9728 32.8443C28.9245 33.0408 28.8115 33.2153 28.6521 33.3399C28.4927 33.4645 28.2961 33.5319 28.0938 33.5313ZM33.5312 33.5313C33.3521 33.5312 33.1771 33.4781 33.0281 33.3787C32.8792 33.2792 32.7631 33.1378 32.6944 32.9724C32.6258 32.807 32.6077 32.6249 32.6424 32.4492C32.6772 32.2735 32.7632 32.1121 32.8896 31.9852L35.8748 29L32.8914 26.0167C32.7264 25.8457 32.635 25.6168 32.6371 25.3792C32.6391 25.1416 32.7345 24.9143 32.9025 24.7463C33.0705 24.5782 33.2978 24.4829 33.5354 24.4809C33.773 24.4788 34.002 24.5701 34.1729 24.7352L37.7979 28.3602C37.9678 28.5302 38.0632 28.7606 38.0632 29.0009C38.0632 29.2412 37.9678 29.4717 37.7979 29.6417L34.1729 33.2667C34.0024 33.4362 33.7717 33.5313 33.5312 33.5313ZM24.4688 33.5313C24.2283 33.5313 23.9976 33.4362 23.8271 33.2667L20.2021 29.6417C20.0322 29.4717 19.9368 29.2412 19.9368 29.0009C19.9368 28.7606 20.0322 28.5302 20.2021 28.3602L23.8271 24.7352C23.998 24.5701 24.227 24.4788 24.4646 24.4809C24.7022 24.4829 24.9295 24.5782 25.0975 24.7463C25.2655 24.9143 25.3609 25.1416 25.3629 25.3792C25.365 25.6168 25.2736 25.8457 25.1086 26.0167L22.1252 29L25.1086 31.9834C25.2355 32.11 25.3221 32.2715 25.3572 32.4473C25.3924 32.6232 25.3746 32.8055 25.3061 32.9712C25.2376 33.1369 25.1215 33.2786 24.9724 33.3783C24.8233 33.478 24.6481 33.5312 24.4688 33.5313Z" fill="black"/>
</svg>
