<svg width="80" height="80" viewBox="0 0 80 80" fill="none" xmlns="http://www.w3.org/2000/svg">
<path d="M40 75C59.33 75 75 59.33 75 40C75 20.67 59.33 5 40 5C20.67 5 5 20.67 5 40C5 59.33 20.67 75 40 75Z" fill="#8892BF"/>
<path d="M36.0981 25H40.2981L39.1111 31.3105H42.8851C44.9548 31.3548 46.4966 31.8172 47.5113 32.6982C48.5461 33.579 48.8506 35.2535 48.4246 37.7203L46.3853 48.7222H42.1243L44.0721 38.2157C44.2748 37.1142 44.2141 36.3325 43.8896 35.87C43.5651 35.4075 42.8651 35.1763 41.7896 35.1763L38.4111 35.1432L35.9153 48.7222H31.7153L36.0981 25Z" fill="white"/>
<path fill-rule="evenodd" clip-rule="evenodd" d="M16.8523 31.3108H25.009C27.403 31.3325 29.138 32.0818 30.2135 33.5573C31.289 35.033 31.644 37.0483 31.2788 39.6035C31.137 40.7713 30.8223 41.9163 30.3353 43.0398C29.8685 44.163 29.2195 45.176 28.3875 46.0793C27.3727 47.2245 26.2873 47.9513 25.1308 48.26C23.9742 48.5685 22.7769 48.7225 21.5394 48.7225H17.8871L16.7306 55H12.5L16.8523 31.3108ZM18.5871 44.989L20.4072 35.1103H21.022C21.2454 35.1103 21.4785 35.099 21.722 35.0773C23.3454 35.0553 24.6943 35.2205 25.77 35.5728C26.8655 35.925 27.2307 37.2578 26.8655 39.5705C26.4195 42.324 25.5465 43.9318 24.2481 44.3943C22.9497 44.835 21.3263 45.044 19.3784 45.022H18.9523C18.8306 45.022 18.7089 45.0108 18.5871 44.989Z" fill="white"/>
<path fill-rule="evenodd" clip-rule="evenodd" d="M61.0913 31.3108H52.9345L48.5823 55H52.8128L53.9695 48.7225H57.6218C58.8593 48.7225 60.0565 48.5685 61.213 48.26C62.3698 47.9513 63.455 47.2245 64.4698 46.0793C65.3018 45.176 65.9508 44.163 66.4175 43.0398C66.9045 41.9163 67.2193 40.7713 67.361 39.6035C67.7263 37.0483 67.3715 35.033 66.2958 33.5573C65.2203 32.0818 63.4855 31.3325 61.0913 31.3108ZM56.4895 35.1103L54.6695 44.989C54.7913 45.0108 54.913 45.022 55.0348 45.022H55.4608C57.4088 45.044 59.032 44.835 60.3305 44.3943C61.6288 43.9318 62.5018 42.324 62.948 39.5705C63.3133 37.2578 62.948 35.925 61.8523 35.5728C60.7768 35.2205 59.4278 35.0553 57.8043 35.0773C57.5608 35.099 57.3278 35.1103 57.1043 35.1103H56.4895Z" fill="white"/>
</svg>
