<svg width="56" height="56" viewBox="0 0 56 56" fill="none" xmlns="http://www.w3.org/2000/svg">
<path d="M10.783 0.812012C10.0631 0.814712 9.37341 1.10165 8.86406 1.61036C8.35471 2.11907 8.0669 2.80838 8.0633 3.52825V32.53C8.0633 33.7391 9.87869 33.7391 9.87869 32.53V9.87869H46.1214V32.53C46.094 33.7631 47.9642 33.7631 47.9368 32.53V3.52825C47.9332 2.80897 47.6459 2.12017 47.1373 1.61156C46.6286 1.10294 45.9398 0.815613 45.2206 0.812012H10.783ZM10.783 2.6274H45.2206C45.7344 2.6274 46.1214 3.01103 46.1214 3.52825V8.0633H9.87869V3.52825C9.87869 3.01103 10.2623 2.62398 10.7795 2.62398L10.783 2.6274ZM12.5949 4.43594C12.4757 4.43594 12.3577 4.45942 12.2476 4.50504C12.1374 4.55065 12.0374 4.61751 11.9531 4.7018C11.8688 4.78609 11.8019 4.88615 11.7563 4.99628C11.7107 5.1064 11.6872 5.22444 11.6872 5.34364C11.6872 5.46284 11.7107 5.58087 11.7563 5.691C11.8019 5.80112 11.8688 5.90119 11.9531 5.98547C12.0374 6.06976 12.1374 6.13662 12.2476 6.18224C12.3577 6.22785 12.4757 6.25133 12.5949 6.25133C12.8357 6.25133 13.0665 6.1557 13.2368 5.98547C13.407 5.81525 13.5026 5.58437 13.5026 5.34364C13.5026 5.1029 13.407 4.87203 13.2368 4.7018C13.0665 4.53157 12.8357 4.43594 12.5949 4.43594ZM16.2189 4.43594C16.0997 4.43594 15.9816 4.45942 15.8715 4.50504C15.7614 4.55065 15.6613 4.61751 15.577 4.7018C15.4927 4.78609 15.4259 4.88615 15.3802 4.99628C15.3346 5.1064 15.3112 5.22444 15.3112 5.34364C15.3112 5.46284 15.3346 5.58087 15.3802 5.691C15.4259 5.80112 15.4927 5.90119 15.577 5.98547C15.6613 6.06976 15.7614 6.13662 15.8715 6.18224C15.9816 6.22785 16.0997 6.25133 16.2189 6.25133C16.4596 6.25133 16.6905 6.1557 16.8607 5.98547C17.0309 5.81525 17.1265 5.58437 17.1265 5.34364C17.1265 5.1029 17.0309 4.87203 16.8607 4.7018C16.6905 4.53157 16.4596 4.43594 16.2189 4.43594ZM19.8428 4.43594C19.7236 4.43594 19.6055 4.45942 19.4954 4.50504C19.3853 4.55065 19.2852 4.61751 19.2009 4.7018C19.1167 4.78609 19.0498 4.88615 19.0042 4.99628C18.9586 5.1064 18.9351 5.22444 18.9351 5.34364C18.9351 5.46284 18.9586 5.58087 19.0042 5.691C19.0498 5.80112 19.1167 5.90119 19.2009 5.98547C19.2852 6.06976 19.3853 6.13662 19.4954 6.18224C19.6055 6.22785 19.7236 6.25133 19.8428 6.25133C20.0835 6.25133 20.3144 6.1557 20.4846 5.98547C20.6548 5.81525 20.7505 5.58437 20.7505 5.34364C20.7505 5.1029 20.6548 4.87203 20.4846 4.7018C20.3144 4.53157 20.0835 4.43594 19.8428 4.43594ZM32.4854 4.43594C31.2626 4.52157 31.3448 6.28216 32.53 6.25133H43.4086C44.5903 6.22393 44.5903 4.46334 43.4086 4.43594H32.4854ZM3.5351 6.25133C2.8149 6.25402 2.12488 6.54085 1.61498 7.04946C1.10508 7.55808 0.816519 8.24738 0.812012 8.96757V41.5932C0.812012 43.0832 2.04511 44.3094 3.5351 44.3094H52.4684C53.1877 44.3058 53.8765 44.0185 54.3851 43.5099C54.8937 43.0013 55.1811 42.3125 55.1847 41.5932V8.96757C55.1811 8.24829 54.8937 7.55949 54.3851 7.05088C53.8765 6.54226 53.1877 6.25493 52.4684 6.25133H50.653C49.4199 6.22393 49.4199 8.0907 50.653 8.0633H52.4684C52.9856 8.0633 53.3693 8.44693 53.3693 8.96757V35.2496H2.62398V8.96757C2.62398 8.44693 3.01788 8.0633 3.5351 8.0633H5.34021C6.57331 8.0907 6.57331 6.22393 5.34021 6.24791L3.5351 6.25133ZM30.7317 13.4855C30.5375 13.4838 30.3478 13.5444 30.1906 13.6584C30.0334 13.7725 29.9169 13.934 29.8583 14.1192L24.4189 30.4303C24.0353 31.5777 25.7548 32.1532 26.1418 31.0057L31.5812 14.6912C31.6285 14.555 31.6427 14.4096 31.6227 14.2668C31.6026 14.1241 31.5488 13.9882 31.4658 13.8704C31.3828 13.7525 31.2729 13.6562 31.1453 13.5892C31.0176 13.5223 30.8758 13.4867 30.7317 13.4855ZM34.6707 18.7261L39.2709 22.5624L34.6707 26.4022C33.6877 27.1694 34.9002 28.6217 35.8353 27.7928L41.2644 23.2612C41.3659 23.176 41.4476 23.0696 41.5036 22.9495C41.5596 22.8293 41.5886 22.6984 41.5886 22.5659C41.5886 22.4333 41.5596 22.3024 41.5036 22.1823C41.4476 22.0621 41.3659 21.9557 41.2644 21.8705L35.8319 17.3355C35.6567 17.1889 35.4335 17.112 35.2051 17.1197C34.3488 17.1951 34.0405 18.2158 34.6707 18.7296V18.7261ZM20.7299 17.1163C20.5248 17.123 20.328 17.1991 20.1716 17.3321L14.7357 21.8671C14.6342 21.9523 14.5525 22.0587 14.4965 22.1788C14.4405 22.299 14.4115 22.4299 14.4115 22.5624C14.4115 22.695 14.4405 22.8259 14.4965 22.946C14.5525 23.0662 14.6342 23.1726 14.7357 23.2578L20.1682 27.7894C21.1033 28.6594 22.3535 27.1591 21.3259 26.3987L16.7224 22.5624L21.3328 18.7296C21.4796 18.6095 21.5851 18.4465 21.6345 18.2633C21.6839 18.0802 21.6747 17.8862 21.6082 17.7086C21.5416 17.531 21.4212 17.3787 21.2637 17.2731C21.1061 17.1674 20.9195 17.1104 20.7299 17.1163ZM2.62398 37.065H53.3727V41.5932C53.376 41.7126 53.3549 41.8313 53.3109 41.9423C53.2668 42.0533 53.2006 42.1541 53.1164 42.2387C53.0321 42.3233 52.9315 42.3899 52.8207 42.4343C52.7099 42.4788 52.5912 42.5003 52.4718 42.4975H3.5351C3.41501 42.5012 3.29542 42.4805 3.18363 42.4364C3.07184 42.3924 2.9702 42.3261 2.88492 42.2414C2.79965 42.1568 2.73253 42.0557 2.68766 41.9442C2.64279 41.8328 2.62112 41.7133 2.62398 41.5932V37.065ZM29.8617 38.877H26.1453C24.9875 39.014 25.0663 40.6513 26.1864 40.6821H29.8137C31.0571 40.7951 31.1599 38.901 29.8617 38.877ZM22.9187 46.0529C22.7408 46.0493 22.5658 46.098 22.4154 46.193C22.2649 46.288 22.1458 46.4251 22.0726 46.5872C21.6342 47.5223 20.8532 48.615 19.5037 49.7488H18.0308C17.3112 49.7542 16.6228 50.0431 16.1149 50.5529C15.607 51.0627 15.3207 51.7522 15.318 52.4718V54.277C15.3146 54.7771 15.7188 55.1847 16.2189 55.1881H39.7812C39.9007 55.1881 40.019 55.1645 40.1294 55.1187C40.2397 55.0728 40.34 55.0057 40.4243 54.921C40.5086 54.8364 40.5754 54.7359 40.6208 54.6254C40.6662 54.5149 40.6894 54.3965 40.6889 54.277V52.4718C40.6845 51.7516 40.3966 51.0621 39.8876 50.5525C39.3787 50.0429 38.6895 49.7542 37.9693 49.7488H36.4964C35.1503 48.6184 34.3659 47.5223 33.9275 46.5872C33.8825 46.4713 33.8142 46.3658 33.7268 46.2773C33.6394 46.1889 33.5347 46.1193 33.4193 46.073C33.3039 46.0266 33.1802 46.0045 33.0559 46.008C32.9316 46.0114 32.8093 46.0404 32.6966 46.0931C32.584 46.1458 32.4833 46.221 32.401 46.3142C32.3186 46.4074 32.2563 46.5165 32.2179 46.6348C32.1794 46.7531 32.1657 46.878 32.1776 47.0018C32.1894 47.1256 32.2266 47.2457 32.2868 47.3545C32.6396 48.1081 33.1773 48.9233 33.9069 49.7488H22.0932C22.8193 48.9267 23.3605 48.1115 23.7133 47.3511C23.7792 47.2145 23.8098 47.0635 23.8023 46.912C23.7948 46.7605 23.7495 46.6133 23.6704 46.4839C23.5914 46.3544 23.4812 46.2469 23.3499 46.171C23.2185 46.0951 23.0703 46.0533 22.9187 46.0495V46.0529ZM18.0308 51.5607H37.9659C38.0863 51.5579 38.206 51.5796 38.3178 51.6244C38.4296 51.6691 38.5312 51.7362 38.6164 51.8213C38.7015 51.9065 38.7686 52.0081 38.8133 52.1199C38.8581 52.2317 38.8798 52.3514 38.877 52.4718V53.3761H17.1265V52.4718C17.1265 51.9546 17.5136 51.5607 18.0308 51.5607Z" fill="black"/>
</svg>
