<svg width="162" height="577" viewBox="0 0 162 577" fill="none" xmlns="http://www.w3.org/2000/svg">
<path d="M119.119 236.245C94.8467 294.379 53.1699 345.41 38.7251 407.57C29.1348 448.773 27.2403 514.485 82.7699 577H162.69L162.69 -15L102.306 -15C110.476 1.9312 124.684 35.912 132.498 79.0096C142.088 131.461 139.839 186.754 119.119 236.245Z" fill="#2B76C1"/>
<path d="M101.188 128.382C101.069 178.702 87.4534 227.128 66.2598 272.475C45.5398 316.757 20.9126 359.381 9.66459 407.57C1.13979 443.918 -1.34662 499.566 36.6598 555.214C2.20538 495.422 9.66458 439.182 21.623 403.07C37.1334 356.184 65.5494 315.928 90.1766 273.659C101.543 254.123 111.962 233.285 120.487 212.328C130.906 186.872 136.589 160.824 136.589 134.184C136.589 133 136.708 131.816 136.826 130.632C136.471 113.227 134.577 95.9408 131.498 78.8912C123.684 35.912 109.476 1.9312 101.306 -15L70.759 -15C70.759 -15 101.306 80.312 101.188 128.382Z" fill="#0B5096"/>
<path d="M51.6965 115.003C59.2741 164.731 53.3541 214.696 39.3829 262.766C25.7669 309.771 7.88853 355.71 4.21813 404.965C3.50773 414.91 3.38933 426.04 4.45493 437.998C4.57333 424.264 6.11253 411.595 8.24372 400.584C17.7157 352.04 40.9221 308.587 60.1029 263.595C79.7573 217.538 91.5973 168.638 89.9397 118.318C88.2821 70.4848 54.5381 -15 54.5381 -15L0.310928 -15C0.310928 -15 44.4741 67.6432 51.6965 115.003Z" fill="#78ADE1"/>
<path d="M63.1811 123.646C68.9827 173.611 61.2867 223.339 45.6579 270.936C30.3843 317.349 10.9667 362.696 5.5203 411.832C4.4547 421.659 3.9811 432.789 4.5731 444.866C5.1651 431.131 7.0595 418.462 9.66431 407.688C20.9123 359.618 45.5395 316.875 66.2595 272.594C87.4531 227.246 101.188 178.702 101.188 128.501C101.188 51.304 70.7587 -15 70.7587 -15L16.5315 -15C16.5315 -15 57.6163 75.9312 63.1811 123.646Z" fill="#2B76C1"/>
</svg>
