<svg width="58" height="58" viewBox="0 0 58 58" fill="none" xmlns="http://www.w3.org/2000/svg">
<path d="M16.2735 42.3668C16.2324 42.2132 16.1515 42.0731 16.039 41.9606C15.9265 41.8482 15.7864 41.7673 15.6328 41.7261L10.5787 40.3722C10.425 40.331 10.2632 40.331 10.1095 40.3722C9.95582 40.4134 9.8157 40.4944 9.70322 40.6069L6.00391 44.3071C5.89154 44.4195 5.8107 44.5595 5.7695 44.713C5.7283 44.8665 5.7282 45.0281 5.76919 45.1816L7.12313 50.2358C7.16431 50.3894 7.2452 50.5295 7.35767 50.642C7.47013 50.7544 7.61022 50.8353 7.76385 50.8765L12.818 52.2304C12.8942 52.251 12.9729 52.2613 13.0518 52.2613C13.2922 52.2612 13.5226 52.1657 13.6925 51.9957L17.3928 48.2964C17.5053 48.1839 17.5862 48.0438 17.6274 47.8901C17.6686 47.7365 17.6686 47.5747 17.6275 47.421L16.2735 42.3668ZM12.7818 50.3418L8.73807 49.2543L7.6551 45.2215L10.6149 42.2617L14.6577 43.3492L15.7452 47.392L12.7818 50.3418Z" fill="black"/>
<path d="M55.9156 43.101L50.7862 37.9716C50.7018 37.8872 50.6014 37.8205 50.491 37.7754C50.3805 37.7303 50.2621 37.7076 50.1428 37.7088C50.0248 37.7077 49.9078 37.7304 49.7988 37.7755C49.6897 37.8207 49.591 37.8874 49.5084 37.9716L48.8921 38.5879C47.8063 37.3366 47.1268 35.7847 46.9437 34.1382L46.2912 28.3201C46.0876 26.4785 45.2667 24.7601 43.9621 23.4445L43.7446 23.227L44.9137 22.0488C44.9963 21.962 45.0963 21.8937 45.2072 21.8484C45.3181 21.8031 45.4374 21.7818 45.5571 21.786C47.2276 21.8896 48.8972 21.5703 50.4116 20.8575C51.9259 20.1448 53.236 19.0617 54.2207 17.7083C55.2055 16.355 55.833 14.7752 56.0453 13.115C56.2576 11.4549 56.0478 9.76796 55.4353 8.21039C55.3812 8.06941 55.2928 7.94417 55.1781 7.84604C55.0633 7.74791 54.9259 7.68001 54.7782 7.64849C54.6305 7.61698 54.4773 7.62286 54.3325 7.6656C54.1877 7.70833 54.0559 7.78657 53.949 7.8932L48.4028 13.4485L45.0315 12.9682L44.5512 9.59695L50.1065 4.0507C50.213 3.94469 50.2913 3.81364 50.334 3.66956C50.3768 3.52548 50.3827 3.37297 50.3512 3.22602C50.3192 3.07802 50.2512 2.9402 50.1532 2.82479C50.0552 2.70939 49.9302 2.61996 49.7893 2.56445C48.2317 1.95194 46.5449 1.74212 44.8847 1.95441C43.2245 2.16669 41.6447 2.79423 40.2914 3.77896C38.938 4.7637 37.8549 6.07382 37.1422 7.58815C36.4294 9.10248 36.1101 10.7721 36.2137 12.4426C36.2157 12.562 36.1935 12.6807 36.1483 12.7913C36.1031 12.9019 36.0359 13.0021 35.9509 13.086L32.2081 16.8288L29.6434 14.2641C29.1567 13.7721 28.5387 13.4304 27.8632 13.2799C27.1877 13.1293 26.4831 13.1763 25.8335 13.4151C25.1839 13.6539 24.6167 14.0745 24.1996 14.6268C23.7825 15.179 23.533 15.8396 23.4809 16.5298C22.8117 16.3543 22.1061 16.3757 21.4488 16.5912C20.7914 16.8068 20.2102 17.2075 19.7749 17.7451C19.3396 18.2828 19.0687 18.9347 18.9946 19.6225C18.9206 20.3103 19.0466 21.0049 19.3574 21.6229C18.6415 21.7439 17.9801 22.0825 17.4634 22.5926C17.0176 23.0406 16.6976 23.598 16.5353 24.2088C16.3731 24.8197 16.3744 25.4624 16.539 26.0726C15.8495 26.1195 15.1881 26.3645 14.6345 26.7783C14.0809 27.192 13.6586 27.7569 13.4183 28.4049C13.1781 29.0529 13.1301 29.7566 13.2802 30.4312C13.4303 31.1059 13.772 31.7228 14.2643 32.2079L15.5421 33.4857L12.9412 36.0866C12.8571 36.1739 12.7555 36.2424 12.643 36.2877C12.5306 36.333 12.4098 36.3541 12.2887 36.3495C12.0893 36.3404 11.899 36.3404 11.6906 36.3313C10.3815 36.3307 9.08504 36.588 7.87535 37.0884C6.66565 37.5888 5.56637 38.3226 4.64027 39.2479C2.76992 41.1166 1.71849 43.6517 1.71729 46.2955C1.71608 48.9394 2.76521 51.4755 4.63386 53.3458C6.50251 55.2162 9.03763 56.2676 11.6815 56.2688H11.7087C13.0172 56.2684 14.3129 56.0101 15.5216 55.5089C16.7304 55.0076 17.8285 54.2731 18.7534 53.3474C19.6783 52.4217 20.4117 51.3229 20.9119 50.1137C21.412 48.9045 21.6691 47.6086 21.6684 46.3001C21.6684 46.1007 21.6593 45.9013 21.6503 45.711C21.6444 45.5897 21.6649 45.4686 21.7102 45.356C21.7556 45.2434 21.8248 45.1419 21.9131 45.0585L24.514 42.4576L34.7728 52.7073L34.1293 53.3507C34.0437 53.4346 33.9756 53.5347 33.9289 53.6452C33.8822 53.7556 33.8579 53.8742 33.8574 53.9941C33.8579 54.1127 33.8822 54.23 33.929 54.3389C33.9757 54.4479 34.0438 54.5464 34.1293 54.6285L35.4071 55.9154C35.5795 56.083 35.8101 56.1773 36.0506 56.1782C36.2907 56.1756 36.5207 56.0816 36.694 55.9154C36.8638 55.7443 36.9591 55.513 36.9591 55.272C36.9591 55.0309 36.8638 54.7996 36.694 54.6285L36.0506 53.9941L50.1428 39.8929L54.6287 44.3788C54.7998 44.5486 55.0311 44.6439 55.2721 44.6439C55.5132 44.6439 55.7445 44.5486 55.9156 44.3788C56.0844 44.209 56.1791 43.9793 56.1791 43.7399C56.1791 43.5005 56.0844 43.2708 55.9156 43.101ZM37.2287 14.3638C37.4969 14.101 37.7059 13.7839 37.8419 13.4339C37.9779 13.0838 38.0376 12.7088 38.0171 12.3338C37.9425 11.0899 38.1542 9.84534 38.6358 8.69595C39.1174 7.54657 39.8562 6.52293 40.7953 5.70372C41.7344 4.88451 42.8489 4.29155 44.053 3.97042C45.2571 3.6493 46.5189 3.60855 47.7412 3.85133L42.9562 8.63633C42.8558 8.73567 42.7799 8.85694 42.7343 8.9906C42.6887 9.12425 42.6747 9.26666 42.6934 9.40664L43.3368 13.8926C43.3643 14.0871 43.4544 14.2675 43.5933 14.4064C43.7322 14.5453 43.9126 14.6354 44.1071 14.6629L48.5931 15.3063C48.733 15.325 48.8755 15.3111 49.0091 15.2655C49.1428 15.2199 49.264 15.1439 49.3634 15.0435L54.1484 10.2585C54.3912 11.4808 54.3504 12.7426 54.0293 13.9467C53.7082 15.1508 53.1152 16.2653 52.296 17.2044C51.4768 18.1435 50.4531 18.8823 49.3038 19.3639C48.1544 19.8455 46.9099 20.0572 45.6659 19.9826C45.291 19.9629 44.9162 20.023 44.5662 20.1589C44.2163 20.2948 43.8992 20.5034 43.6359 20.771L42.4578 21.9491L39.8931 19.3845C39.202 18.7252 38.2835 18.3574 37.3284 18.3574C36.3732 18.3574 35.4548 18.7252 34.7637 19.3845L33.4859 18.1066L37.2287 14.3638ZM25.7918 15.542C26.1385 15.2146 26.5973 15.0322 27.0742 15.0322C27.551 15.0322 28.0098 15.2146 28.3565 15.542L33.4859 20.6713L30.9212 23.236L25.7918 18.1066C25.4543 17.7652 25.2651 17.3044 25.2651 16.8243C25.2651 16.3442 25.4543 15.8834 25.7918 15.542ZM21.3059 18.7501C21.6505 18.4186 22.1101 18.2334 22.5882 18.2334C23.0664 18.2334 23.526 18.4186 23.8706 18.7501L29.6434 24.5138L29.7521 24.6498C29.5821 25.008 29.4939 25.3996 29.4939 25.7962C29.4939 26.1927 29.5821 26.5843 29.7521 26.9426L29.6434 27.0785C29.2967 27.4059 28.8379 27.5883 28.361 27.5883C27.8842 27.5883 27.4254 27.4059 27.0787 27.0785L24.8312 24.831L21.3059 21.3057C21.1379 21.138 21.0046 20.9389 20.9136 20.7196C20.8226 20.5003 20.7758 20.2653 20.7758 20.0279C20.7758 19.7905 20.8226 19.5555 20.9136 19.3362C21.0046 19.1169 21.1379 18.9178 21.3059 18.7501ZM18.7503 23.8704C19.0898 23.5328 19.5492 23.3433 20.0281 23.3433C20.5069 23.3433 20.9663 23.5328 21.3059 23.8704L23.5534 26.1179L25.7918 28.3563H25.8009L27.0787 29.6432C27.2471 29.8116 27.3807 30.0115 27.4718 30.2315C27.563 30.4516 27.6099 30.6874 27.6099 30.9255C27.6099 31.1637 27.563 31.3995 27.4718 31.6195C27.3807 31.8396 27.2471 32.0395 27.0787 32.2079C26.9103 32.3763 26.7104 32.5099 26.4903 32.601C26.2703 32.6921 26.0345 32.7391 25.7963 32.7391C25.5582 32.7391 25.3224 32.6921 25.1024 32.601C24.8823 32.5099 24.6824 32.3763 24.514 32.2079L19.3846 27.0785L18.7503 26.4351C18.5817 26.2667 18.448 26.0668 18.3568 25.8468C18.2656 25.6268 18.2187 25.3909 18.2187 25.1527C18.2187 24.9145 18.2656 24.6787 18.3568 24.4587C18.448 24.2386 18.5817 24.0387 18.7503 23.8704ZM15.0074 29.6432C15.0067 29.404 15.0536 29.1669 15.1454 28.946C15.2372 28.7251 15.3721 28.5246 15.5421 28.3563C15.8828 28.0206 16.3416 27.8319 16.8199 27.8307C17.0586 27.8283 17.2954 27.8736 17.5163 27.9638C17.7373 28.0541 17.9381 28.1875 18.1068 28.3563L23.2362 33.4857L23.8706 34.1291C24.2107 34.4692 24.4017 34.9305 24.4017 35.4115C24.4017 35.8925 24.2107 36.3537 23.8706 36.6938C23.5305 37.0339 23.0692 37.225 22.5882 37.225C22.1073 37.225 21.646 37.0339 21.3059 36.6938L15.5421 30.921C15.3729 30.754 15.2385 30.555 15.1467 30.3357C15.0549 30.1164 15.0076 29.881 15.0074 29.6432ZM36.0506 51.4295L25.7918 41.1798L35.4071 31.5645C35.5769 31.3933 35.6722 31.1621 35.6722 30.921C35.6722 30.68 35.5769 30.4487 35.4071 30.2776C35.2373 30.1088 35.0076 30.014 34.7682 30.014C34.5288 30.014 34.2991 30.1088 34.1293 30.2776L20.6262 43.7807C20.359 44.0443 20.1507 44.3615 20.0148 44.7113C19.8789 45.0612 19.8186 45.4359 19.8378 45.8107C19.8468 45.9738 19.8559 46.137 19.8559 46.3001C19.8559 48.4617 18.9978 50.5349 17.4702 52.0642C15.9425 53.5936 13.8703 54.4539 11.7087 54.4563H11.6815C9.51833 54.4551 7.44424 53.5947 5.91549 52.0642C4.38675 50.5338 3.52858 48.4587 3.52979 46.2955C3.53099 44.1324 4.39146 42.0583 5.9219 40.5295C7.45234 39.0008 9.5274 38.1426 11.6906 38.1438C11.8265 38.1438 12.0259 38.1529 12.189 38.162C12.5636 38.179 12.9377 38.1177 13.2872 37.982C13.6368 37.8462 13.9541 37.639 14.219 37.3735L16.8199 34.7635L20.0281 37.9716C20.5876 38.5349 21.3171 38.8983 22.1038 39.0055C22.8906 39.1128 23.6907 38.958 24.3806 38.5651C25.0706 38.1721 25.6119 37.563 25.9211 36.8316C26.2302 36.1003 26.2899 35.2875 26.0909 34.5188C26.677 34.4757 27.2435 34.2893 27.7406 33.976C28.2378 33.6627 28.6504 33.232 28.9422 32.7219C29.2339 32.2118 29.3959 31.6378 29.4139 31.0504C29.4318 30.463 29.3053 29.8802 29.0453 29.3532C29.7576 29.2201 30.4122 28.8722 30.9212 28.3563C30.9484 28.3382 30.9574 28.311 30.9846 28.2929C31.8571 28.868 32.9009 29.1252 33.9407 29.0213C34.9805 28.9173 35.9527 28.4585 36.694 27.722C36.8654 27.5562 37.0945 27.4635 37.3329 27.4635C37.5713 27.4635 37.8004 27.5562 37.9718 27.722C38.0561 27.8046 38.1228 27.9033 38.1679 28.0123C38.2131 28.1213 38.2358 28.2383 38.2346 28.3563C38.2358 28.4757 38.2132 28.594 38.1681 28.7045C38.1229 28.815 38.0562 28.9154 37.9718 28.9998L37.3284 29.6432C36.1401 30.8337 35.4727 32.4471 35.4727 34.1291C35.4727 35.8112 36.1401 37.4246 37.3284 38.6151L37.9718 39.2495C38.0545 39.3355 38.1537 39.4039 38.2635 39.4506C38.3733 39.4974 38.4914 39.5215 38.6107 39.5215C38.73 39.5215 38.8481 39.4974 38.9579 39.4506C39.0677 39.4039 39.1669 39.3355 39.2496 39.2495C39.4184 39.0797 39.5132 38.85 39.5132 38.6105C39.5132 38.3711 39.4184 38.1414 39.2496 37.9716L38.6153 37.3282C37.7658 36.4785 37.2886 35.3261 37.2886 34.1246C37.2886 32.9231 37.7658 31.7708 38.6153 30.921L39.2496 30.2776C39.5024 30.0255 39.7029 29.7261 39.8397 29.3964C39.9766 29.0667 40.047 28.7133 40.047 28.3563C40.047 27.9994 39.9766 27.6459 39.8397 27.3163C39.7029 26.9866 39.5024 26.6871 39.2496 26.4351C38.7315 25.942 38.0436 25.6669 37.3284 25.6669C36.6131 25.6669 35.9252 25.942 35.4071 26.4351C34.8974 26.9442 34.2063 27.2302 33.4859 27.2302C32.7654 27.2302 32.0744 26.9442 31.5646 26.4351C31.3958 26.2653 31.3011 26.0356 31.3011 25.7962C31.3011 25.5568 31.3958 25.3271 31.5646 25.1573L36.0506 20.6713C36.3952 20.3398 36.8547 20.1546 37.3329 20.1546C37.8111 20.1546 38.2707 20.3398 38.6153 20.6713L42.6753 24.7223C43.6894 25.7491 44.3307 27.0858 44.4968 28.5195L45.1493 34.3376C45.3778 36.3896 46.2357 38.3206 47.6053 39.8657L36.0506 51.4295Z" fill="black"/>
</svg>
