<svg width="58" height="58" viewBox="0 0 58 58" fill="none" xmlns="http://www.w3.org/2000/svg">
<path d="M28.2267 27.9686C28.1494 27.9686 28.072 27.9557 28.0076 27.93C27.6725 27.8011 27.5049 27.4402 27.6338 27.1051L33.7045 10.6975C33.8334 10.3624 34.1942 10.1948 34.5294 10.3237C34.8645 10.4526 35.032 10.8135 34.916 11.1486L28.8325 27.5433C28.7422 27.8011 28.4974 27.9686 28.2267 27.9686ZM13.7654 24.9011C11.6645 24.9011 9.96313 23.2771 9.96313 21.2922V14.0486C9.96313 13.6877 10.2467 13.4042 10.6076 13.4042C10.9685 13.4042 11.252 13.6877 11.252 14.0486V21.2922C11.252 22.5682 12.3862 23.6122 13.7654 23.6122C15.1445 23.6122 16.2787 22.5682 16.2787 21.2922V14.0486C16.2787 13.6877 16.5622 13.4042 16.9231 13.4042C17.284 13.4042 17.5676 13.6877 17.5676 14.0486V21.2922C17.5805 23.29 15.8662 24.9011 13.7654 24.9011ZM19.9907 24.9011C19.8876 24.9011 19.7845 24.8753 19.6814 24.8237C19.372 24.6562 19.256 24.2695 19.4236 23.9473L24.9658 13.662C25.1334 13.3526 25.52 13.2366 25.8422 13.4042C26.1516 13.5717 26.2676 13.9584 26.1 14.2806L20.5578 24.566C20.4418 24.7851 20.2227 24.9011 19.9907 24.9011Z" fill="black"/>
<path d="M25.5328 24.9011C25.3008 24.9011 25.0817 24.7851 24.9657 24.566L19.4234 14.2806C19.2559 13.9713 19.3719 13.5717 19.6812 13.4042C19.9906 13.2366 20.3901 13.3526 20.5577 13.662L26.0999 23.9473C26.2674 24.2566 26.1514 24.6562 25.8421 24.8237C25.739 24.8753 25.6359 24.9011 25.5328 24.9011ZM40.1746 24.9011C38.0737 24.9011 36.3723 23.2771 36.3723 21.2922V14.0486C36.3723 13.6877 36.6559 13.4042 37.0168 13.4042C37.3777 13.4042 37.6612 13.6877 37.6612 14.0486V21.2922C37.6612 22.5682 38.7954 23.6122 40.1746 23.6122C41.5537 23.6122 42.6879 22.5682 42.6879 21.2922V14.0486C42.6879 13.6877 42.9714 13.4042 43.3323 13.4042C43.6932 13.4042 43.9768 13.6877 43.9768 14.0486V21.2922C43.9768 23.29 42.2754 24.9011 40.1746 24.9011ZM47.4568 25.5971C47.0959 25.5971 46.8123 25.3135 46.8123 24.9526V13.2753C46.8123 12.9144 47.0959 12.6309 47.4568 12.6309C47.8177 12.6309 48.1012 12.9144 48.1012 13.2753V24.9526C48.1012 25.3135 47.8177 25.5971 47.4568 25.5971ZM22.8132 41.9917C21.6403 41.9917 20.6866 41.038 20.6866 39.8651C20.6866 38.6922 21.6403 37.7384 22.8132 37.7384C23.9861 37.7384 24.9399 38.6922 24.9399 39.8651C24.9399 41.038 23.9861 41.9917 22.8132 41.9917ZM22.8132 39.0273C22.3492 39.0273 21.9754 39.4011 21.9754 39.8651C21.9754 40.3291 22.3492 40.7029 22.8132 40.7029C23.2772 40.7029 23.651 40.3291 23.651 39.8651C23.651 39.4011 23.2772 39.0273 22.8132 39.0273ZM29.0386 41.9917C27.8657 41.9917 26.9119 41.038 26.9119 39.8651C26.9119 38.6922 27.8657 37.7384 29.0386 37.7384C30.2114 37.7384 31.1652 38.6922 31.1652 39.8651C31.1652 41.038 30.2114 41.9917 29.0386 41.9917ZM29.0386 39.0273C28.5746 39.0273 28.2008 39.4011 28.2008 39.8651C28.2008 40.3291 28.5746 40.7029 29.0386 40.7029C29.5026 40.7029 29.8763 40.3291 29.8763 39.8651C29.8763 39.4011 29.5026 39.0273 29.0386 39.0273ZM35.251 41.9917C34.0781 41.9917 33.1243 41.038 33.1243 39.8651C33.1243 38.6922 34.0781 37.7384 35.251 37.7384C36.4239 37.7384 37.3777 38.6922 37.3777 39.8651C37.3777 41.038 36.4239 41.9917 35.251 41.9917ZM35.251 39.0273C34.787 39.0273 34.4132 39.4011 34.4132 39.8651C34.4132 40.3291 34.787 40.7029 35.251 40.7029C35.715 40.7029 36.0888 40.3291 36.0888 39.8651C36.0888 39.4011 35.715 39.0273 35.251 39.0273Z" fill="black"/>
<path d="M53.5146 45.227H4.54975C2.34575 45.227 0.554199 43.4354 0.554199 41.2314V6.44429C0.554199 4.24029 2.34575 2.44873 4.54975 2.44873H53.5146C55.7186 2.44873 57.5102 4.24029 57.5102 6.44429V41.2314C57.5231 43.4354 55.7186 45.227 53.5146 45.227ZM4.54975 3.72473C3.05464 3.72473 1.84309 4.93629 1.84309 6.4314V41.2185C1.84309 42.7136 3.05464 43.9252 4.54975 43.9252H53.5146C55.0098 43.9252 56.2213 42.7136 56.2213 41.2185V6.44429C56.2213 4.94917 55.0098 3.73762 53.5146 3.73762C53.5146 3.72473 4.54975 3.72473 4.54975 3.72473Z" fill="black"/>
<path d="M56.8786 35.7923H1.19864C0.837755 35.7923 0.554199 35.5088 0.554199 35.1479C0.554199 34.787 0.837755 34.5034 1.19864 34.5034H56.8786C57.2395 34.5034 57.5231 34.787 57.5231 35.1479C57.5231 35.5088 57.2266 35.7923 56.8786 35.7923ZM39.324 51.1688C38.9631 51.1688 38.6795 50.8852 38.6795 50.5243V44.5696C38.6795 44.2087 38.9631 43.9252 39.324 43.9252C39.6849 43.9252 39.9684 44.2087 39.9684 44.5696V50.5243C39.9684 50.8852 39.6849 51.1688 39.324 51.1688ZM19.0369 51.1688C18.676 51.1688 18.3924 50.8852 18.3924 50.5243V44.5696C18.3924 44.2087 18.676 43.9252 19.0369 43.9252C19.3978 43.9252 19.6813 44.2087 19.6813 44.5696V50.5243C19.6813 50.8852 19.3978 51.1688 19.0369 51.1688Z" fill="black"/>
<path d="M42.8428 55.7445H15.2219C13.5979 55.7445 12.2832 54.4299 12.2832 52.8059C12.2832 51.1947 13.5979 49.8672 15.2219 49.8672H42.8299C44.441 49.8672 45.7685 51.1819 45.7685 52.8059C45.7685 54.4299 44.4539 55.7445 42.8428 55.7445ZM15.2219 51.169C14.3196 51.169 13.5721 51.9036 13.5721 52.8187C13.5721 53.7339 14.3068 54.4685 15.2219 54.4685H42.8299C43.7321 54.4685 44.4796 53.7339 44.4796 52.8187C44.4796 51.9036 43.745 51.169 42.8299 51.169H15.2219Z" fill="black"/>
</svg>
