<svg width="58" height="58" viewBox="0 0 58 58" fill="none" xmlns="http://www.w3.org/2000/svg">
<path d="M11.783 1.81201C11.0631 1.81471 10.3734 2.10165 9.86406 2.61036C9.35471 3.11907 9.0669 3.80838 9.0633 4.52825V33.53C9.0633 34.7391 10.8787 34.7391 10.8787 33.53V10.8787H47.1214V33.53C47.094 34.7631 48.9642 34.7631 48.9368 33.53V4.52825C48.9332 3.80897 48.6459 3.12017 48.1373 2.61156C47.6286 2.10294 46.9398 1.81561 46.2206 1.81201H11.783ZM11.783 3.6274H46.2206C46.7344 3.6274 47.1214 4.01103 47.1214 4.52825V9.0633H10.8787V4.52825C10.8787 4.01103 11.2623 3.62398 11.7795 3.62398L11.783 3.6274ZM13.5949 5.43594C13.4757 5.43594 13.3577 5.45942 13.2476 5.50504C13.1374 5.55065 13.0374 5.61751 12.9531 5.7018C12.8688 5.78609 12.8019 5.88615 12.7563 5.99628C12.7107 6.1064 12.6872 6.22444 12.6872 6.34364C12.6872 6.46284 12.7107 6.58087 12.7563 6.691C12.8019 6.80112 12.8688 6.90119 12.9531 6.98547C13.0374 7.06976 13.1374 7.13662 13.2476 7.18224C13.3577 7.22785 13.4757 7.25133 13.5949 7.25133C13.8357 7.25133 14.0665 7.1557 14.2368 6.98547C14.407 6.81525 14.5026 6.58437 14.5026 6.34364C14.5026 6.1029 14.407 5.87203 14.2368 5.7018C14.0665 5.53157 13.8357 5.43594 13.5949 5.43594ZM17.2189 5.43594C17.0997 5.43594 16.9816 5.45942 16.8715 5.50504C16.7614 5.55065 16.6613 5.61751 16.577 5.7018C16.4927 5.78609 16.4259 5.88615 16.3802 5.99628C16.3346 6.1064 16.3112 6.22444 16.3112 6.34364C16.3112 6.46284 16.3346 6.58087 16.3802 6.691C16.4259 6.80112 16.4927 6.90119 16.577 6.98547C16.6613 7.06976 16.7614 7.13662 16.8715 7.18224C16.9816 7.22785 17.0997 7.25133 17.2189 7.25133C17.4596 7.25133 17.6905 7.1557 17.8607 6.98547C18.0309 6.81525 18.1265 6.58437 18.1265 6.34364C18.1265 6.1029 18.0309 5.87203 17.8607 5.7018C17.6905 5.53157 17.4596 5.43594 17.2189 5.43594ZM20.8428 5.43594C20.7236 5.43594 20.6055 5.45942 20.4954 5.50504C20.3853 5.55065 20.2852 5.61751 20.2009 5.7018C20.1167 5.78609 20.0498 5.88615 20.0042 5.99628C19.9586 6.1064 19.9351 6.22444 19.9351 6.34364C19.9351 6.46284 19.9586 6.58087 20.0042 6.691C20.0498 6.80112 20.1167 6.90119 20.2009 6.98547C20.2852 7.06976 20.3853 7.13662 20.4954 7.18224C20.6055 7.22785 20.7236 7.25133 20.8428 7.25133C21.0835 7.25133 21.3144 7.1557 21.4846 6.98547C21.6548 6.81525 21.7505 6.58437 21.7505 6.34364C21.7505 6.1029 21.6548 5.87203 21.4846 5.7018C21.3144 5.53157 21.0835 5.43594 20.8428 5.43594ZM33.4854 5.43594C32.2626 5.52157 32.3448 7.28216 33.53 7.25133H44.4086C45.5903 7.22393 45.5903 5.46334 44.4086 5.43594H33.4854ZM4.5351 7.25133C3.8149 7.25402 3.12488 7.54085 2.61498 8.04946C2.10508 8.55808 1.81652 9.24738 1.81201 9.96757V42.5932C1.81201 44.0832 3.04511 45.3094 4.5351 45.3094H53.4684C54.1877 45.3058 54.8765 45.0185 55.3851 44.5099C55.8937 44.0013 56.1811 43.3125 56.1847 42.5932V9.96757C56.1811 9.24829 55.8937 8.55949 55.3851 8.05088C54.8765 7.54226 54.1877 7.25493 53.4684 7.25133H51.653C50.4199 7.22393 50.4199 9.0907 51.653 9.0633H53.4684C53.9856 9.0633 54.3693 9.44693 54.3693 9.96757V36.2496H3.62398V9.96757C3.62398 9.44693 4.01788 9.0633 4.5351 9.0633H6.34021C7.57331 9.0907 7.57331 7.22393 6.34021 7.24791L4.5351 7.25133ZM31.7317 14.4855C31.5375 14.4838 31.3478 14.5444 31.1906 14.6584C31.0334 14.7725 30.9169 14.934 30.8583 15.1192L25.4189 31.4303C25.0353 32.5777 26.7548 33.1532 27.1418 32.0057L32.5812 15.6912C32.6285 15.555 32.6427 15.4096 32.6227 15.2668C32.6026 15.1241 32.5488 14.9882 32.4658 14.8704C32.3828 14.7525 32.2729 14.6562 32.1453 14.5892C32.0176 14.5223 31.8758 14.4867 31.7317 14.4855ZM35.6707 19.7261L40.2709 23.5624L35.6707 27.4022C34.6877 28.1694 35.9002 29.6217 36.8353 28.7928L42.2644 24.2612C42.3659 24.176 42.4476 24.0696 42.5036 23.9495C42.5596 23.8293 42.5886 23.6984 42.5886 23.5659C42.5886 23.4333 42.5596 23.3024 42.5036 23.1823C42.4476 23.0621 42.3659 22.9557 42.2644 22.8705L36.8319 18.3355C36.6567 18.1889 36.4335 18.112 36.2051 18.1197C35.3488 18.1951 35.0405 19.2158 35.6707 19.7296V19.7261ZM21.7299 18.1163C21.5248 18.123 21.328 18.1991 21.1716 18.3321L15.7357 22.8671C15.6342 22.9523 15.5525 23.0587 15.4965 23.1788C15.4405 23.299 15.4115 23.4299 15.4115 23.5624C15.4115 23.695 15.4405 23.8259 15.4965 23.946C15.5525 24.0662 15.6342 24.1726 15.7357 24.2578L21.1682 28.7894C22.1033 29.6594 23.3535 28.1591 22.3259 27.3987L17.7224 23.5624L22.3328 19.7296C22.4796 19.6095 22.5851 19.4465 22.6345 19.2633C22.6839 19.0802 22.6747 18.8862 22.6082 18.7086C22.5416 18.531 22.4212 18.3787 22.2637 18.2731C22.1061 18.1674 21.9195 18.1104 21.7299 18.1163ZM3.62398 38.065H54.3727V42.5932C54.376 42.7126 54.3549 42.8313 54.3109 42.9423C54.2668 43.0533 54.2006 43.1541 54.1164 43.2387C54.0321 43.3233 53.9315 43.3899 53.8207 43.4343C53.7099 43.4788 53.5912 43.5003 53.4718 43.4975H4.5351C4.41501 43.5012 4.29542 43.4805 4.18363 43.4364C4.07184 43.3924 3.9702 43.3261 3.88492 43.2414C3.79965 43.1568 3.73253 43.0557 3.68766 42.9442C3.64279 42.8328 3.62112 42.7133 3.62398 42.5932V38.065ZM30.8617 39.877H27.1453C25.9875 40.014 26.0663 41.6513 27.1864 41.6821H30.8137C32.0571 41.7951 32.1599 39.901 30.8617 39.877ZM23.9187 47.0529C23.7408 47.0493 23.5658 47.098 23.4154 47.193C23.2649 47.288 23.1458 47.4251 23.0726 47.5872C22.6342 48.5223 21.8532 49.615 20.5037 50.7488H19.0308C18.3112 50.7542 17.6228 51.0431 17.1149 51.5529C16.607 52.0627 16.3207 52.7522 16.318 53.4718V55.277C16.3146 55.7771 16.7188 56.1847 17.2189 56.1881H40.7812C40.9007 56.1881 41.019 56.1645 41.1294 56.1187C41.2397 56.0728 41.34 56.0057 41.4243 55.921C41.5086 55.8364 41.5754 55.7359 41.6208 55.6254C41.6662 55.5149 41.6894 55.3965 41.6889 55.277V53.4718C41.6845 52.7516 41.3966 52.0621 40.8876 51.5525C40.3787 51.0429 39.6895 50.7542 38.9693 50.7488H37.4964C36.1503 49.6184 35.3659 48.5223 34.9275 47.5872C34.8825 47.4713 34.8142 47.3658 34.7268 47.2773C34.6394 47.1889 34.5347 47.1193 34.4193 47.073C34.3039 47.0266 34.1802 47.0045 34.0559 47.008C33.9316 47.0114 33.8093 47.0404 33.6966 47.0931C33.584 47.1458 33.4833 47.221 33.401 47.3142C33.3186 47.4074 33.2563 47.5165 33.2179 47.6348C33.1794 47.7531 33.1657 47.878 33.1776 48.0018C33.1894 48.1256 33.2266 48.2457 33.2868 48.3545C33.6396 49.1081 34.1773 49.9233 34.9069 50.7488H23.0932C23.8193 49.9267 24.3605 49.1115 24.7133 48.3511C24.7792 48.2145 24.8098 48.0635 24.8023 47.912C24.7948 47.7605 24.7495 47.6133 24.6704 47.4839C24.5914 47.3544 24.4812 47.2469 24.3499 47.171C24.2185 47.0951 24.0703 47.0533 23.9187 47.0495V47.0529ZM19.0308 52.5607H38.9659C39.0863 52.5579 39.206 52.5796 39.3178 52.6244C39.4296 52.6691 39.5312 52.7362 39.6164 52.8213C39.7015 52.9065 39.7686 53.0081 39.8133 53.1199C39.8581 53.2317 39.8798 53.3514 39.877 53.4718V54.3761H18.1265V53.4718C18.1265 52.9546 18.5136 52.5607 19.0308 52.5607Z" fill="black"/>
</svg>
